<?xml version="1.0" standalone="no"?>
<!DOCTYPE svg PUBLIC "-//W3C//DTD SVG 20010904//EN"
 "http://www.w3.org/TR/2001/REC-SVG-20010904/DTD/svg10.dtd">
<svg version="1.0" xmlns="http://www.w3.org/2000/svg"
 width="325.000000pt" height="352.000000pt" viewBox="0 0 325.000000 352.000000"
 preserveAspectRatio="xMidYMid meet">
<metadata>
Created by potrace 1.15, written by Peter Selinger 2001-2017
</metadata>
<g transform="translate(0.000000,352.000000) scale(0.100000,-0.100000)"
fill="#ffffff" stroke="none">
<path d="M1375 3496 c-532 -88 -969 -407 -1200 -875 -187 -379 -215 -793 -80
-1206 29 -90 142 -308 202 -393 33 -46 95 -121 137 -168 62 -67 73 -84 56 -84
-12 0 -24 -9 -30 -22 l-9 -23 0 23 c-1 28 -31 30 -31 2 0 -13 -7 -20 -20 -20
-84 0 126 -224 340 -363 113 -73 205 -118 329 -161 110 -39 295 -80 317 -72
17 7 19 88 3 119 -15 28 -60 77 -72 77 -4 0 -5 -10 -2 -21 5 -15 4 -19 -4 -15
-6 4 -11 16 -11 27 0 23 -37 26 -66 4 -10 -8 -29 -15 -41 -15 -12 0 -28 -7
-37 -15 -8 -8 -19 -15 -24 -15 -6 0 -13 -6 -15 -12 -3 -8 -6 -6 -6 5 -1 11 -9
17 -25 17 -14 0 -28 5 -31 10 -9 15 -25 12 -25 -5 0 -8 -5 -15 -11 -15 -6 0
-8 8 -4 19 4 14 0 21 -15 26 -28 9 -81 55 -75 65 6 9 -51 70 -65 70 -13 0 -20
28 -7 33 9 3 9 9 0 25 -11 19 -10 19 30 -3 110 -61 344 -138 485 -159 l42 -6
0 35 c0 28 -4 36 -22 39 -139 29 -188 41 -255 62 -91 30 -275 117 -353 168
l-55 35 173 1 c165 0 172 1 172 20 0 17 7 20 44 20 l44 0 4 -56 c4 -42 11 -61
30 -80 28 -29 79 -43 123 -34 23 4 34 1 48 -17 37 -46 108 -65 162 -43 28 11
53 -13 47 -46 -4 -25 -8 -26 -48 -21 -48 5 -52 2 -28 -24 20 -23 10 -39 -24
-39 l-27 0 25 -19 c20 -16 22 -22 11 -35 -7 -8 -21 -18 -32 -21 -26 -9 -24
-23 4 -27 27 -4 35 -39 12 -58 -22 -18 -19 -30 9 -30 14 0 27 -4 30 -9 5 -8
-3 -45 -20 -85 -7 -19 -6 -19 28 2 46 28 58 28 58 -3 0 -29 7 -31 32 -9 22 21
43 7 52 -36 7 -36 26 -40 26 -6 0 24 23 56 39 56 5 0 14 -7 21 -15 14 -16 35
-21 25 -5 -3 5 -1 18 4 29 13 23 41 18 67 -10 30 -33 45 -24 28 17 -17 41 -12
69 11 60 20 -7 19 13 -1 35 -21 23 -12 36 36 50 42 13 44 29 4 29 -14 0 -34 5
-45 10 -19 10 -19 12 -3 39 15 25 28 31 100 45 155 30 407 131 533 213 7 4
-21 63 -30 63 -5 0 -28 -12 -52 -27 -107 -68 -328 -154 -468 -182 -54 -11 -57
-14 -63 -47 -6 -31 -9 -34 -34 -28 -37 9 -38 11 -24 46 14 38 11 43 -16 29
-37 -20 -55 -14 -48 14 7 28 -5 33 -24 10 -7 -8 -22 -15 -34 -15 -20 0 -19 1
4 13 45 23 50 48 50 257 0 225 -7 264 -50 303 -34 30 -67 34 -109 12 -45 -23
-53 -56 -49 -219 2 -80 0 -146 -4 -146 -3 0 -8 74 -10 164 -3 147 -5 166 -23
186 -11 12 -29 26 -40 31 -11 4 66 8 180 8 166 0 196 -2 177 -12 -52 -29 -57
-49 -60 -246 -2 -101 -1 -194 2 -207 4 -14 21 -33 39 -44 17 -11 34 -30 37
-42 9 -37 51 -51 113 -38 108 22 171 81 183 169 l6 46 79 -3 c83 -4 105 4 111
37 3 16 14 16 173 -6 94 -13 181 -22 195 -21 31 4 39 33 11 41 -17 4 -8 16 58
85 233 239 378 521 437 852 28 153 23 402 -9 561 -44 211 -110 372 -224 549
-231 356 -596 606 -1025 701 -120 27 -460 35 -583 15z m573 -84 c210 -48 410
-136 579 -255 113 -79 281 -247 360 -360 324 -461 369 -1044 118 -1545 -65
-131 -145 -245 -254 -363 -47 -51 -81 -96 -81 -108 0 -12 -3 -21 -7 -21 -9 0
-325 131 -333 138 -3 2 11 16 30 30 70 53 194 179 250 253 112 151 195 345
226 534 19 120 15 330 -10 443 -93 428 -401 774 -811 911 -245 82 -525 82
-767 1 -365 -122 -651 -408 -773 -772 -163 -488 -7 -1019 396 -1345 l69 -55
34 16 c19 9 43 16 55 16 16 0 21 6 22 28 0 27 1 27 11 4 9 -17 16 -21 32 -15
47 15 61 10 64 -24 l3 -33 -147 0 -146 0 4 -30 c5 -35 19 -30 -157 -60 -66
-12 -128 -23 -137 -26 -14 -4 -18 1 -18 21 0 20 -21 49 -75 108 -126 135 -235
308 -299 472 -158 410 -137 844 58 1229 76 150 154 256 285 387 225 225 497
368 811 428 146 28 469 24 608 -7z m-36 -385 c322 -84 595 -303 743 -597 129
-256 158 -543 85 -824 -61 -233 -227 -478 -419 -620 -35 -25 -74 -46 -87 -46
-22 0 -24 -4 -24 -50 l0 -50 -40 0 -40 0 0 44 0 43 78 19 c61 15 77 23 76 37
-1 11 5 17 19 17 21 0 57 26 57 42 0 4 -16 8 -35 8 -28 0 -35 4 -35 19 0 11
-8 22 -17 24 -10 3 -1 5 19 6 20 0 48 -3 62 -9 21 -8 27 -6 36 10 6 11 17 20
25 20 8 0 15 6 15 14 0 7 7 19 15 26 24 20 18 29 -22 35 -65 11 -94 25 -38 18
28 -3 60 -9 71 -14 25 -9 34 -3 34 21 0 13 -15 20 -57 29 -94 19 -153 13 -153
-15 0 -17 -27 -19 -32 -2 -4 10 -11 10 -34 0 -23 -11 -26 -11 -16 -1 13 14 17
49 5 49 -5 -1 -19 -7 -33 -15 -34 -19 -71 -18 -165 5 -47 11 -94 17 -112 14
l-33 -6 0 76 0 76 -29 0 c-51 0 -56 6 -53 60 2 27 -1 65 -8 85 -15 46 -1 65
50 65 l38 0 7 55 c3 30 3 60 -1 66 -4 8 -25 10 -60 6 l-54 -6 43 33 c64 48 96
116 97 199 0 80 -15 120 -64 175 -64 71 -166 101 -268 79 -33 -7 -37 -6 -31
10 4 9 8 12 10 6 3 -8 14 -8 36 -2 18 5 47 9 64 9 32 0 33 1 33 46 0 27 -4 43
-10 39 -5 -3 -25 -8 -43 -10 -30 -4 -35 -1 -50 31 -9 19 -17 37 -17 39 0 11
40 3 79 -16 24 -11 69 -23 101 -27 52 -6 56 -9 49 -27 -5 -14 -8 -15 -8 -5 -1
11 -13 16 -40 17 -32 2 -40 -2 -45 -20 -14 -53 -8 -63 46 -76 56 -15 122 -71
154 -132 45 -89 20 -263 -46 -316 -13 -11 -11 -16 15 -38 73 -62 82 -66 96
-49 11 13 10 17 -4 25 -13 8 -14 13 -5 28 6 10 19 16 28 14 10 -3 20 2 23 11
4 9 2 16 -3 16 -5 0 -7 7 -4 15 4 11 11 12 24 5 20 -11 30 -4 30 22 0 10 -7
18 -15 18 -8 0 -15 7 -15 15 0 8 5 15 10 15 6 0 10 9 10 20 0 17 6 20 27 18
34 -4 47 30 14 39 -12 3 -21 13 -21 23 0 10 -6 21 -12 23 -7 3 -1 6 15 6 17 1
27 6 27 16 0 8 7 15 16 15 9 0 14 7 12 18 -3 14 -14 17 -61 15 -46 -2 -57 1
-57 14 0 8 -6 13 -13 10 -26 -10 -12 38 16 56 28 20 33 32 17 42 -5 3 -7 12
-4 20 10 25 -25 29 -50 6 -28 -26 -52 -11 -33 20 10 16 7 23 -17 44 -30 26
-46 31 -46 16 0 -5 -8 -7 -19 -4 -28 7 -22 50 8 58 13 3 43 19 67 35 33 23 49
28 73 24 17 -4 31 -9 31 -12 0 -4 -17 -23 -37 -44 -35 -36 -36 -39 -20 -56 17
-16 20 -14 69 37 48 50 54 53 88 47 53 -8 124 19 158 60 32 39 104 165 98 171
-2 3 -19 -3 -37 -12 -47 -25 -104 -15 -239 40 -85 35 -124 57 -150 85 -37 39
-88 76 -95 68 -3 -2 0 -19 5 -38 5 -19 9 -35 7 -36 -1 -1 -22 2 -47 6 -25 5
-68 9 -96 10 l-52 0 6 45 c6 53 7 53 -102 25 -43 -11 -115 -22 -160 -25 -121
-9 -160 -22 -217 -73 -65 -58 -89 -106 -89 -176 0 -62 13 -99 47 -137 20 -22
23 -32 17 -68 -5 -30 -10 -39 -17 -32 -17 17 -37 13 -37 -7 0 -11 27 -34 76
-64 42 -25 71 -49 65 -53 -6 -3 -9 -11 -6 -16 4 -5 -5 -5 -20 1 -37 14 -45 13
-45 -10 0 -13 9 -22 25 -26 18 -4 25 -13 25 -30 0 -18 6 -24 23 -25 12 0 40
-6 62 -14 l40 -13 -63 5 c-56 5 -62 4 -56 -11 5 -14 2 -16 -17 -12 -150 32
-169 33 -169 7 0 -15 11 -22 50 -30 28 -6 65 -12 83 -12 22 -1 25 -3 11 -6
-12 -2 -25 -14 -29 -26 l-8 -22 -4 23 c-4 22 -8 23 -76 20 l-72 -3 -2 -37 -3
-38 45 0 c40 0 45 3 46 23 l2 22 4 -22 c4 -19 11 -23 44 -23 33 0 39 3 40 23
l2 22 4 -22 c2 -12 12 -24 21 -26 9 -3 2 -5 -15 -6 -33 -1 -45 -22 -22 -37 15
-9 -9 -24 -36 -23 -11 0 -14 3 -7 6 16 6 15 43 -2 43 -7 0 -34 -3 -60 -6 -41
-6 -46 -10 -46 -31 0 -23 3 -25 35 -19 31 6 35 4 35 -14 0 -16 7 -20 33 -21
29 0 30 -1 10 -9 -22 -9 -30 -30 -17 -42 3 -3 18 -1 35 5 19 8 27 16 24 26 -3
8 0 18 7 23 21 13 28 9 28 -13 0 -16 5 -20 18 -16 66 21 62 22 62 -17 0 -21
-4 -35 -9 -32 -4 3 -6 18 -3 32 4 24 2 26 -14 20 -10 -5 -32 -13 -47 -18 -24
-9 -28 -14 -22 -37 6 -25 6 -25 -8 -6 -13 17 -18 18 -41 7 -14 -6 -26 -19 -26
-28 0 -13 6 -15 30 -10 23 4 30 2 30 -10 0 -12 7 -15 24 -12 l25 5 -28 -26
c-16 -15 -40 -32 -55 -39 -31 -14 -43 -39 -28 -54 9 -9 18 -6 34 8 14 12 18
13 10 3 -11 -15 -8 -49 5 -49 2 0 20 12 39 26 35 27 44 49 22 56 -7 3 -8 10
-3 17 6 11 10 10 17 -3 9 -16 11 -16 29 0 19 17 19 15 19 -107 0 -68 3 -154 6
-191 l7 -66 -47 -49 c-30 -30 -41 -38 -30 -20 20 33 16 38 -33 47 l-38 8 35 1
c20 0 41 -4 48 -11 10 -9 16 -8 30 6 16 16 16 18 -2 32 -30 21 -100 17 -166
-11 -33 -14 -78 -25 -101 -25 -36 0 -41 -2 -36 -20 4 -17 2 -19 -21 -14 -33 8
-41 14 -19 14 10 0 17 8 17 19 0 14 -9 20 -32 23 -18 3 -54 11 -79 18 -55 16
-99 7 -99 -19 0 -16 6 -18 43 -14 23 3 53 0 67 -6 22 -9 21 -10 -11 -5 -61 10
-105 -26 -56 -46 12 -5 16 -9 9 -9 -8 -1 -12 -8 -10 -18 2 -11 14 -17 38 -17
40 -2 54 11 37 33 -10 12 -9 14 6 8 10 -4 26 -7 34 -7 11 0 14 -7 9 -24 -4
-18 -1 -28 11 -35 15 -9 14 -10 -9 -11 -31 0 -39 -24 -12 -34 13 -5 14 -9 4
-21 -15 -18 -13 -21 20 -33 16 -6 19 -11 11 -16 -15 -10 -155 125 -222 214
-64 85 -152 263 -183 370 -175 617 182 1257 797 1430 118 33 181 39 342 35
119 -3 170 -9 247 -28z m-312 -286 c-5 -11 -10 -31 -10 -45 l0 -26 33 20 c40
25 113 26 201 4 l64 -16 -9 -31 c-5 -18 -25 -47 -45 -64 -30 -27 -46 -33 -82
-33 -35 0 -45 4 -49 19 -7 27 -33 15 -33 -14 0 -30 44 -65 81 -65 25 0 27 -2
20 -22 -7 -19 -15 -22 -42 -20 -41 4 -119 37 -119 50 0 6 -7 13 -16 16 -13 5
-15 2 -11 -14 7 -26 -30 -28 -49 -2 -12 16 -14 16 -41 0 -32 -19 -43 -66 -21
-83 25 -18 50 -64 44 -80 -4 -11 -20 -15 -57 -15 -56 0 -89 19 -89 51 0 19
-14 31 -93 79 -58 36 -87 81 -87 136 0 80 70 116 261 134 55 5 113 16 127 24
15 8 28 14 30 15 1 1 -2 -8 -8 -18z m540 -149 c36 -12 84 -23 106 -24 l42 -3
-19 -26 c-38 -53 -142 -80 -229 -59 l-51 12 8 42 c4 22 8 57 8 77 l0 37 35
-18 c19 -9 64 -27 100 -38z m-435 -383 c59 -16 129 -92 145 -158 18 -78 0
-141 -59 -201 -79 -83 -190 -93 -284 -27 -16 10 -30 17 -32 15 -3 -2 -2 -34 2
-71 6 -64 7 -67 32 -67 36 0 101 -19 101 -29 0 -17 -26 -30 -40 -21 -8 6 -32
10 -52 10 l-38 0 0 -151 0 -151 37 7 c21 4 50 13 66 22 27 14 31 13 50 -5 l20
-20 -34 -18 c-21 -11 -65 -19 -116 -22 l-83 -5 0 380 0 379 29 46 c52 82 152
115 256 87z m-332 -986 c7 -6 401 -4 437 3 26 6 31 2 59 -47 17 -30 31 -57 31
-61 0 -5 -138 -8 -307 -8 -287 0 -310 -1 -340 -19 l-32 -20 21 37 c12 20 41
58 65 83 l44 46 1 364 1 364 8 -368 c4 -203 9 -371 12 -374z m644 -208 c33
-22 59 -68 67 -117 8 -50 0 -60 -42 -52 -25 5 -32 12 -32 30 0 48 -67 83 -98
52 -8 -8 -12 -55 -12 -144 l0 -133 -30 -32 c-16 -18 -32 -30 -35 -27 -3 3 -6
90 -6 193 0 206 0 207 64 239 37 19 87 15 124 -9z m-725 -50 c4 -22 7 -93 7
-157 1 -105 3 -118 20 -128 31 -16 59 -12 75 11 11 17 13 44 9 134 -7 129 -1
160 29 176 18 10 24 8 40 -11 16 -19 18 -42 18 -173 0 -165 7 -187 60 -187 47
0 50 12 50 186 0 134 3 165 16 178 20 21 47 20 67 -1 22 -26 29 -469 6 -484
-34 -21 -91 6 -109 53 -18 45 -17 45 -50 13 -50 -48 -122 -31 -151 35 -13 28
-39 42 -39 21 0 -16 -59 -31 -85 -21 -40 15 -45 39 -45 212 0 176 4 191 50
186 20 -2 26 -10 32 -43z m1069 -141 c95 -41 107 -49 64 -41 -16 3 -54 9 -82
12 l-53 7 0 -36 0 -36 -94 0 -93 0 -7 -37 c-3 -21 -6 -52 -6 -69 0 -57 -77
-114 -154 -114 -70 0 -54 72 26 115 27 15 54 38 60 51 16 35 -4 73 -42 80 -16
4 -30 13 -30 20 0 11 30 14 155 14 l155 0 0 35 c0 19 4 35 8 35 5 0 46 -16 93
-36z m-1201 -19 c0 -24 -2 -25 -70 -25 -63 0 -70 -2 -70 -20 0 -19 -6 -20
-147 -19 l-148 1 70 14 c39 7 85 16 103 19 23 4 32 11 32 25 0 26 11 28 128
29 l102 1 0 -25z"/>
<path d="M1547 3383 l-28 -4 3 -87 3 -87 58 -3 57 -3 0 31 c0 28 -3 30 -37 32
-37 1 -37 1 -5 5 26 4 32 9 32 28 0 19 -6 24 -32 28 l-33 4 33 1 c29 2 32 5
32 32 0 32 -8 34 -83 23z"/>
<path d="M1656 3344 c-3 -26 -6 -69 -6 -95 l0 -49 55 0 c50 0 55 2 55 23 0 22
1 21 13 -3 9 -18 22 -26 48 -28 45 -4 67 19 75 81 9 62 -13 97 -60 97 -41 0
-63 -23 -72 -76 -6 -38 -8 -40 -36 -36 l-29 4 7 55 c5 42 3 57 -7 64 -27 17
-36 9 -43 -37z"/>
<path d="M1449 3328 l0 -53 -18 45 c-15 35 -24 46 -45 48 -14 2 -26 -1 -26 -6
0 -5 15 -44 34 -88 26 -58 40 -80 55 -82 27 -4 36 20 46 116 l7 72 -26 0 c-25
0 -26 -3 -27 -52z"/>
<path d="M1285 3348 c-22 -6 -42 -12 -44 -14 -4 -4 31 -157 39 -167 9 -11 110
14 110 27 -1 25 -19 39 -44 34 -15 -3 -29 -1 -32 3 -3 5 3 9 13 9 29 0 43 14
37 37 -5 18 -12 21 -38 18 l-31 -5 33 12 c22 7 31 16 27 25 -3 8 -5 19 -5 24
0 11 -12 10 -65 -3z"/>
<path d="M1924 3324 c-3 -16 -12 -54 -20 -84 -7 -30 -10 -58 -5 -63 15 -15 46
-2 49 21 2 15 10 22 26 22 31 0 56 30 56 67 0 37 -16 52 -64 60 -32 5 -36 3
-42 -23z"/>
<path d="M1137 3306 c-21 -5 -36 -15 -35 -20 56 -185 47 -175 118 -142 50 23
29 154 -26 167 -11 3 -36 0 -57 -5z"/>
<path d="M2065 3308 c-2 -7 -16 -44 -30 -82 -13 -37 -23 -72 -20 -76 4 -7 55
-22 80 -24 6 -1 16 -7 23 -13 7 -7 17 -13 21 -13 9 0 61 139 61 163 0 26 -43
29 -63 5 l-18 -22 6 25 c5 21 1 27 -20 37 -32 15 -35 15 -40 0z"/>
<path d="M2195 3174 c-19 -42 -35 -79 -35 -81 0 -2 21 -13 46 -24 34 -14 50
-16 59 -9 10 9 12 7 8 -8 -8 -31 28 -38 51 -10 l19 23 -6 -32 c-5 -26 -2 -35
13 -43 10 -5 21 -10 23 -10 7 0 87 139 87 150 0 21 -35 20 -53 -2 l-19 -23 7
28 c6 30 -8 57 -30 57 -7 0 -27 -25 -44 -55 -29 -50 -33 -54 -47 -40 -8 8 -22
15 -30 15 -8 0 -14 5 -14 10 0 13 6 13 32 -1 16 -9 23 -8 29 2 14 22 10 37
-11 44 -11 3 -20 10 -20 15 0 5 12 4 26 -2 21 -10 27 -9 35 3 5 8 9 19 9 24 0
9 -74 45 -92 45 -4 0 -23 -34 -43 -76z"/>
<path d="M945 3223 c-16 -8 -31 -17 -33 -18 -2 -2 14 -37 35 -79 26 -53 43
-76 56 -76 24 0 31 23 16 52 l-12 23 26 -23 c17 -17 32 -22 46 -17 27 8 26 16
-4 45 -14 13 -25 33 -25 45 0 31 -28 65 -53 65 -12 -1 -35 -8 -52 -17z"/>
<path d="M843 3163 c-24 -14 -43 -29 -43 -34 0 -7 74 -135 86 -148 4 -4 94 52
94 60 0 3 -6 13 -13 23 -13 18 -15 18 -39 2 -15 -9 -29 -13 -32 -8 -3 5 6 14
19 20 28 13 31 24 11 41 -11 10 -20 10 -36 1 -12 -6 -24 -10 -26 -7 -2 2 7 10
21 17 27 15 32 32 13 48 -9 7 -25 3 -55 -15z"/>
<path d="M754 3106 c-17 -13 -17 -17 -5 -38 l14 -23 -22 19 c-20 19 -23 19
-39 3 -14 -15 -15 -20 -3 -40 14 -22 14 -22 -8 -3 -20 19 -23 19 -39 2 -16
-16 -14 -20 45 -77 48 -47 67 -59 83 -54 24 8 25 16 4 58 l-17 32 26 -23 c17
-17 32 -22 46 -17 12 3 21 10 21 14 0 7 -76 150 -84 158 -1 1 -11 -4 -22 -11z"/>
<path d="M570 2950 c-11 -11 -20 -27 -20 -36 0 -29 38 -80 75 -100 32 -17 38
-18 63 -4 20 12 28 25 30 52 3 30 -3 42 -33 72 -41 42 -84 47 -115 16z"/>
<path d="M2597 2939 c-28 -22 -57 -67 -57 -92 0 -20 38 -57 58 -57 31 0 55 24
48 47 -5 16 -12 19 -34 15 -25 -5 -26 -4 -12 14 30 37 59 46 56 17 0 -10 7
-19 18 -21 39 -8 50 57 14 82 -30 21 -57 20 -91 -5z"/>
<path d="M470 2835 l-33 -34 25 -20 c14 -11 44 -36 68 -56 47 -40 53 -41 70
-20 11 13 9 19 -8 38 -15 16 -18 26 -11 39 12 21 -1 50 -33 72 -32 22 -40 20
-78 -19z"/>
<path d="M2689 2827 c-76 -51 -73 -129 4 -135 33 -3 43 2 78 36 44 45 48 68
19 100 -27 28 -58 28 -101 -1z"/>
<path d="M2768 2697 c-69 -42 -79 -56 -55 -75 10 -9 19 -7 37 5 l23 16 -18
-31 c-18 -29 -18 -32 -2 -50 9 -10 17 -23 17 -28 1 -27 17 -35 44 -22 24 10
29 10 37 -5 21 -36 109 -8 109 34 0 25 -27 79 -40 79 -5 0 -39 -17 -76 -37
l-67 -37 19 32 c10 18 26 32 35 32 59 0 78 37 48 90 -13 22 -27 40 -33 40 -6
0 -41 -19 -78 -43z"/>
<path d="M352 2668 c-22 -22 -12 -36 53 -74 35 -21 63 -39 62 -40 -1 -1 -37 5
-80 13 -74 14 -80 13 -93 -4 -7 -10 -12 -21 -11 -24 1 -3 33 -32 71 -64 65
-55 69 -57 82 -40 16 22 18 35 4 35 -5 0 -10 7 -10 15 0 8 9 15 19 15 12 0 23
9 27 23 4 12 10 24 13 27 9 6 51 76 51 83 0 4 -10 11 -22 18 -18 10 -24 8 -38
-11 l-17 -22 -39 24 c-21 13 -44 27 -50 31 -6 3 -16 1 -22 -5z"/>
<path d="M2880 2458 c-47 -32 -56 -51 -42 -82 16 -35 51 -47 97 -35 54 15 89
53 80 87 -13 55 -77 69 -135 30z"/>
<path d="M240 2441 c-31 -59 18 -121 95 -121 53 0 75 19 75 65 0 28 -6 37 -30
50 -35 18 -57 19 -63 3 -3 -8 -6 -6 -6 5 -1 25 -57 23 -71 -2z"/>
<path d="M2932 2322 c-53 -13 -62 -19 -60 -36 2 -12 13 -23 28 -26 23 -6 24
-7 6 -17 -16 -9 -18 -17 -12 -57 5 -28 12 -46 21 -46 19 0 27 -30 10 -36 -15
-6 -22 -54 -8 -54 4 0 45 15 90 33 76 29 83 34 81 57 -3 26 -7 27 -122 45 -35
6 -37 8 -20 19 11 7 34 13 52 13 49 0 66 22 58 77 -7 42 -10 46 -34 45 -15 -1
-55 -8 -90 -17z"/>
<path d="M200 2307 c0 -19 7 -28 28 -35 l27 -9 -37 -7 c-31 -6 -38 -11 -38
-30 0 -20 9 -24 75 -40 42 -10 82 -15 90 -12 26 10 16 35 -17 44 l-33 9 37 7
c25 4 39 14 43 27 4 11 5 22 3 23 -1 2 -34 11 -73 20 -38 9 -78 19 -87 22 -14
4 -18 -1 -18 -19z"/>
<path d="M165 2146 c-14 -74 -9 -79 85 -93 46 -6 85 -11 86 -10 1 1 4 28 8 60
l6 58 -27 -3 c-22 -2 -29 -9 -31 -30 -2 -16 -7 -28 -12 -28 -5 0 -7 14 -3 30
5 27 3 30 -19 30 -17 0 -28 -8 -36 -27 l-12 -28 6 29 c3 18 0 32 -8 37 -25 16
-37 9 -43 -25z"/>
<path d="M256 2033 c-4 -4 -23 -6 -42 -5 -48 4 -64 -12 -64 -63 l0 -42 61 -7
c123 -12 119 -14 119 49 0 50 -2 56 -26 65 -30 12 -38 12 -48 3z"/>
<path d="M2935 1845 c-14 -13 -25 -33 -25 -43 0 -30 44 -64 92 -69 55 -6 98
23 98 68 0 62 -116 94 -165 44z"/>
<path d="M2907 1723 c-15 -15 -7 -43 13 -43 11 0 20 -4 20 -10 0 -5 -9 -10
-20 -10 -21 0 -47 -38 -33 -49 10 -9 163 -45 167 -40 2 2 7 14 10 27 6 18 3
22 -13 22 -31 0 -35 18 -4 22 22 2 28 8 28 28 0 22 -7 26 -75 42 -88 20 -85
20 -93 11z"/>
<path d="M257 1700 c-16 -13 -27 -16 -29 -9 -3 8 -10 8 -26 -2 -31 -20 -30
-73 2 -94 26 -17 69 -8 79 17 4 10 8 10 16 -2 8 -12 13 -12 35 0 50 26 23 110
-35 110 -9 0 -28 -9 -42 -20z"/>
<path d="M336 1597 c-15 -11 -16 -17 -7 -35 6 -12 7 -23 2 -26 -5 -3 -12 6
-15 20 -5 19 -12 25 -29 22 -18 -2 -22 -9 -20 -38 l1 -35 -10 33 c-9 27 -15
31 -32 26 -30 -9 -30 -8 -11 -64 13 -39 21 -50 33 -46 10 3 48 15 85 26 l68
21 -7 32 c-10 47 -22 77 -32 77 -4 0 -16 -6 -26 -13z"/>
<path d="M311 1450 c-35 -11 -65 -21 -67 -23 -11 -11 11 -37 30 -37 15 0 17
-3 8 -9 -24 -15 -9 -46 21 -46 28 1 28 1 7 -15 -22 -16 -19 -54 4 -48 32 9
146 85 146 99 0 26 -20 38 -48 28 -34 -13 -41 -3 -8 12 27 13 30 18 20 43 -8
20 -33 19 -113 -4z"/>
<path d="M2780 1346 c-5 -13 -14 -27 -20 -31 -8 -5 -6 -14 7 -28 17 -21 17
-21 0 -7 -16 12 -20 12 -28 -1 -14 -23 -6 -32 62 -71 75 -44 84 -45 100 -16
10 19 8 25 -17 45 l-29 23 34 -11 c30 -11 36 -10 48 6 15 22 17 45 4 45 -6 0
-36 16 -68 35 -69 41 -81 43 -93 11z"/>
<path d="M476 1277 c-18 -13 -18 -15 -1 -40 9 -15 13 -27 7 -27 -5 0 -16 9
-23 21 -10 14 -20 18 -32 13 -18 -7 -18 -12 -2 -59 3 -11 -1 -8 -10 8 -18 31
-24 32 -49 14 -17 -13 -17 -16 10 -55 16 -23 33 -41 38 -42 12 0 145 83 146
92 0 10 -53 88 -60 88 -3 0 -14 -6 -24 -13z"/>
<path d="M525 1152 c-17 -15 -45 -39 -64 -54 -31 -24 -33 -27 -18 -42 19 -20
26 -20 48 0 11 10 19 12 23 5 4 -6 -2 -16 -14 -23 -24 -15 -26 -31 -5 -48 12
-10 25 -5 71 31 30 24 63 50 71 56 15 12 15 15 -2 33 l-18 20 -23 -21 c-13
-12 -28 -18 -35 -13 -9 5 -4 14 16 30 24 19 27 25 16 38 -18 22 -31 20 -66
-12z"/>
<path d="M2563 1053 c-38 -40 -39 -42 -15 -59 14 -11 20 -9 39 8 28 26 43 16
18 -12 -17 -19 -18 -22 -2 -37 15 -16 18 -15 39 3 l23 19 -17 -21 c-22 -25
-23 -38 -4 -53 11 -9 21 -4 50 25 20 20 36 39 36 42 0 12 -114 122 -125 121
-5 -1 -25 -17 -42 -36z"/>
<path d="M2488 979 c-40 -30 -38 -74 6 -122 41 -45 78 -48 119 -11 l29 25 -57
64 c-31 36 -60 65 -63 65 -4 0 -19 -10 -34 -21z"/>
<path d="M1576 2185 c-22 -8 -51 -23 -65 -33 -25 -19 -26 -22 -29 -153 l-2
-134 32 -22 c144 -97 328 1 316 168 -9 129 -136 217 -252 174z"/>
<path d="M2759 710 c-8 -16 -20 -30 -26 -30 -7 0 -13 -4 -13 -9 0 -15 29 -33
42 -26 7 4 5 0 -4 -8 -22 -17 -23 -47 -3 -47 16 0 20 -15 7 -24 -17 -10 -52 7
-52 25 0 16 -6 17 -52 12 -59 -6 -73 -14 -65 -37 5 -11 15 -14 39 -11 18 3 26
2 18 -1 -8 -4 -18 -11 -21 -17 -9 -13 -49 2 -49 19 0 8 -10 14 -25 14 -18 0
-26 -7 -31 -27 -5 -17 -3 -28 4 -31 7 -2 10 -8 6 -13 -8 -14 -24 -11 -24 5 0
24 -17 27 -41 7 -20 -17 -22 -23 -12 -39 10 -18 8 -20 -18 -26 -36 -7 -49 -34
-26 -51 10 -7 17 -16 17 -21 0 -4 -5 -3 -12 4 -16 16 -38 -3 -38 -35 0 -22 -3
-23 -36 -17 -27 5 -38 3 -48 -12 -11 -14 -25 -17 -70 -15 -43 2 -57 -1 -62
-13 -3 -9 -12 -16 -20 -16 -8 0 -14 -9 -14 -20 0 -16 -5 -19 -30 -14 -19 4
-38 1 -55 -10 -21 -14 -25 -14 -25 -2 0 8 -6 17 -12 19 -10 4 -10 6 0 6 6 1
12 10 12 21 0 11 4 20 10 20 5 0 9 -3 9 -7 -4 -24 4 -33 26 -33 14 0 25 5 25
10 0 6 9 10 20 10 27 0 37 27 18 47 -12 12 -20 13 -37 4 -11 -7 -21 -16 -21
-21 0 -6 -4 -10 -10 -10 -5 0 -10 7 -10 15 0 10 -10 15 -34 15 -30 0 -34 -4
-40 -31 -3 -17 -6 -46 -7 -63 0 -17 -3 -25 -6 -18 -2 6 -16 12 -29 12 -28 0
-31 -20 -11 -64 12 -26 14 -27 67 -21 157 19 380 98 533 189 148 88 309 227
387 336 27 37 4 65 -53 66 -23 0 -52 3 -64 7 -17 6 -23 2 -34 -23z"/>
</g>
</svg>
