<?xml version="1.0" standalone="no"?>
<!DOCTYPE svg PUBLIC "-//W3C//DTD SVG 20010904//EN"
 "http://www.w3.org/TR/2001/REC-SVG-20010904/DTD/svg10.dtd">
<svg version="1.0" xmlns="http://www.w3.org/2000/svg"
 width="906.000000pt" height="980.000000pt" viewBox="0 0 906.000000 980.000000"
 preserveAspectRatio="xMidYMid meet">
<metadata>
Created by potrace 1.15, written by Peter Selinger 2001-2017
</metadata>
<g transform="translate(0.000000,980.000000) scale(0.100000,-0.100000)"
fill="#ffffff" stroke="none">
<path d="M4273 9785 c-328 -59 -631 -279 -795 -577 -36 -65 -46 -78 -63 -73
-11 3 -83 8 -160 11 -159 7 -228 -4 -362 -56 -252 -97 -441 -299 -534 -570
-18 -52 -34 -97 -35 -98 -1 -2 -43 5 -92 17 -200 47 -354 10 -471 -114 -92
-97 -136 -217 -129 -354 3 -73 9 -97 39 -156 63 -128 189 -227 327 -256 144
-29 280 9 404 114 l65 55 89 -90 c155 -157 299 -236 509 -279 94 -19 266 -15
365 9 88 21 155 46 164 60 2 4 -15 50 -40 101 -69 145 -74 172 -74 365 0 94 4
188 9 209 13 54 46 87 88 87 66 0 89 -59 63 -165 -14 -55 -13 -192 1 -251 6
-27 30 -87 52 -134 34 -70 57 -101 132 -175 100 -100 189 -156 320 -202 76
-26 89 -28 260 -28 201 0 256 10 382 69 149 71 268 169 365 302 33 46 66 84
72 84 6 0 50 -16 96 -34 133 -54 194 -68 331 -73 190 -8 350 32 504 125 82 49
252 220 313 315 94 145 112 219 112 472 0 195 -9 243 -69 364 -118 240 -306
407 -552 492 -54 18 -93 23 -251 27 -179 4 -188 4 -188 -14 0 -11 7 -80 14
-155 17 -154 9 -243 -24 -309 -23 -45 -45 -60 -90 -60 -76 0 -90 38 -64 174
16 87 16 96 0 169 -33 145 -141 320 -260 420 -180 150 -550 232 -823 182z"/>
<path d="M885 7291 c-268 -6 -293 -8 -325 -26 -46 -28 -68 -68 -80 -151 -12
-86 -13 -605 -1 -658 6 -24 25 -55 52 -82 l43 -44 316 0 c439 -1 802 -15 866
-34 81 -25 107 -64 105 -162 0 -56 -16 -97 -48 -127 -34 -30 -150 -36 -645
-37 l-478 0 0 -2720 0 -2720 -202 0 c-297 0 -377 -18 -433 -100 -72 -104 -56
-277 33 -352 89 -74 -1 -73 4442 -73 4443 0 4353 -1 4442 73 67 56 96 181 67
286 -24 86 -123 155 -248 172 l-51 7 -1 1718 c-1 946 -3 1724 -4 1729 -1 6 -3
323 -4 706 l-1 696 -27 -17 c-16 -10 -298 -210 -628 -445 -1118 -795 -1316
-930 -1366 -930 -35 0 -95 38 -139 87 -39 44 -42 52 -37 92 8 76 65 137 242
259 l48 34 -6 430 c-3 237 -9 433 -12 436 -9 9 -38 -10 -620 -424 -645 -459
-1039 -737 -1199 -843 -102 -69 -111 -73 -153 -68 -123 14 -204 163 -141 257
21 31 56 62 162 143 l36 28 0 589 c0 325 -3 590 -6 590 -3 0 -159 -112 -347
-248 -188 -136 -615 -446 -949 -687 l-608 -440 -1 -985 c-1 -1136 -8 -1487
-31 -1541 -29 -67 -107 -101 -194 -85 -23 5 -54 23 -85 53 l-49 46 0 2298 0
2298 42 13 c23 7 58 28 79 48 33 31 38 42 45 105 5 39 9 203 9 365 0 326 0
324 -68 401 l-32 36 -760 5 c-418 2 -890 2 -1050 -1z m3403 -4363 l-3 -353
-352 -3 -353 -2 0 355 0 355 355 0 355 0 -2 -352z m1930 0 l-3 -353 -352 -3
-353 -2 0 355 0 355 355 0 355 0 -2 -352z m1862 -3 l0 -355 -352 2 -353 3 -3
353 -2 352 355 0 355 0 0 -355z"/>
</g>
</svg>
